<?xml version="1.0" encoding="utf-8"?>
<!-- Generator: Adobe Illustrator 22.0.0, SVG Export Plug-In . SVG Version: 6.00 Build 0)  -->
<svg version="1.1" id="Livello_1" xmlns="http://www.w3.org/2000/svg" xmlns:xlink="http://www.w3.org/1999/xlink" x="0px" y="0px"
	 viewBox="0 0 841.9 595.3" style="enable-background:new 0 0 841.9 595.3;" xml:space="preserve">
<style type="text/css">
	.st0{fill:none;}
	.st1{font-family:'Geometric415BT-BlackA';}
	.st2{font-size:24px;}
	.st3{font-family:'GothamLight';}
	.st4{font-size:18px;}
	.st5{fill:none;stroke:#000000;stroke-width:3;stroke-miterlimit:10;}
</style>
<g>
	<path d="M181.9-580.4h5c1.3,0,2.3,0.3,2.9,1c0.5,0.5,0.8,1.1,0.8,1.9v0c0,0.3,0,0.6-0.1,0.9c-0.1,0.3-0.2,0.5-0.3,0.7
		c-0.1,0.2-0.3,0.4-0.5,0.5c-0.2,0.1-0.4,0.3-0.6,0.4c0.3,0.1,0.6,0.3,0.9,0.4c0.3,0.2,0.5,0.3,0.7,0.6c0.2,0.2,0.3,0.5,0.5,0.8
		c0.1,0.3,0.2,0.6,0.2,1v0c0,0.5-0.1,0.9-0.3,1.3c-0.2,0.4-0.5,0.7-0.8,1c-0.4,0.3-0.8,0.5-1.3,0.6c-0.5,0.1-1.1,0.2-1.7,0.2h-5.2
		V-580.4z M186.5-575.7c0.6,0,1.1-0.1,1.5-0.4c0.4-0.3,0.6-0.6,0.6-1.1v0c0-0.4-0.2-0.8-0.5-1c-0.3-0.3-0.8-0.4-1.5-0.4h-2.8v3
		H186.5z M187.1-571c0.7,0,1.2-0.1,1.6-0.4c0.4-0.3,0.6-0.6,0.6-1.2v0c0-0.5-0.2-0.9-0.6-1.1c-0.4-0.3-1-0.4-1.7-0.4h-3.1v3.1H187.1
		z"/>
	<path d="M198.8-569c-0.9,0-1.7-0.2-2.4-0.5c-0.7-0.3-1.3-0.7-1.8-1.2c-0.5-0.5-0.9-1.1-1.2-1.8c-0.3-0.7-0.4-1.4-0.4-2.2v0
		c0-0.8,0.1-1.5,0.4-2.2c0.3-0.7,0.7-1.3,1.2-1.8c0.5-0.5,1.1-0.9,1.9-1.3c0.7-0.3,1.5-0.5,2.4-0.5c0.9,0,1.7,0.2,2.4,0.5
		c0.7,0.3,1.3,0.7,1.8,1.2c0.5,0.5,0.9,1.1,1.2,1.8c0.3,0.7,0.4,1.4,0.4,2.2v0c0,0.8-0.1,1.5-0.4,2.2c-0.3,0.7-0.7,1.3-1.2,1.8
		c-0.5,0.5-1.1,0.9-1.9,1.3C200.5-569.2,199.7-569,198.8-569z M198.8-570.8c0.6,0,1.1-0.1,1.5-0.3c0.5-0.2,0.9-0.5,1.2-0.8
		c0.3-0.4,0.6-0.8,0.8-1.3s0.3-1,0.3-1.5v0c0-0.5-0.1-1.1-0.3-1.5c-0.2-0.5-0.4-0.9-0.8-1.3c-0.3-0.4-0.7-0.6-1.2-0.9
		c-0.5-0.2-1-0.3-1.5-0.3c-0.6,0-1.1,0.1-1.5,0.3c-0.5,0.2-0.9,0.5-1.2,0.8c-0.3,0.4-0.6,0.8-0.8,1.3c-0.2,0.5-0.3,1-0.3,1.5v0
		c0,0.5,0.1,1.1,0.3,1.5c0.2,0.5,0.4,0.9,0.8,1.3c0.3,0.4,0.7,0.6,1.2,0.9C197.8-570.9,198.3-570.8,198.8-570.8z"/>
	<path d="M209.8-578.6h-3.6v-1.8h9.1v1.8h-3.6v9.4h-2V-578.6z"/>
	<path d="M221.4-580.5h1.8l4.9,11.3h-2.1l-1.1-2.7h-5.3l-1.2,2.7h-2L221.4-580.5z M224.2-573.7l-1.9-4.5l-1.9,4.5H224.2z"/>
	<path d="M230.1-580.4h1.8l6,7.8v-7.8h2v11.2h-1.6l-6.2-8v8h-2V-580.4z"/>
	<path d="M242.9-580.4h2v11.2h-2V-580.4z"/>
	<path d="M253.1-569c-0.8,0-1.6-0.1-2.3-0.4c-0.7-0.3-1.3-0.7-1.8-1.2c-0.5-0.5-0.9-1.1-1.2-1.8c-0.3-0.7-0.4-1.5-0.4-2.3v0
		c0-0.8,0.1-1.6,0.4-2.3c0.3-0.7,0.7-1.3,1.2-1.8c0.5-0.5,1.1-0.9,1.8-1.2c0.7-0.3,1.5-0.5,2.3-0.5c0.5,0,1,0,1.4,0.1
		c0.4,0.1,0.8,0.2,1.2,0.4c0.4,0.2,0.7,0.3,1,0.6c0.3,0.2,0.6,0.4,0.8,0.7l-1.3,1.5c-0.4-0.4-0.9-0.8-1.4-1
		c-0.5-0.3-1.1-0.4-1.7-0.4c-0.5,0-1,0.1-1.5,0.3c-0.5,0.2-0.8,0.5-1.2,0.8c-0.3,0.4-0.6,0.8-0.8,1.3c-0.2,0.5-0.3,1-0.3,1.5v0
		c0,0.5,0.1,1.1,0.3,1.5c0.2,0.5,0.4,0.9,0.8,1.3c0.3,0.4,0.7,0.6,1.2,0.9c0.5,0.2,0.9,0.3,1.5,0.3c0.7,0,1.3-0.1,1.8-0.4
		c0.5-0.3,1-0.6,1.5-1.1l1.3,1.3c-0.3,0.3-0.6,0.6-0.9,0.8c-0.3,0.2-0.7,0.4-1,0.6c-0.4,0.2-0.8,0.3-1.2,0.4
		C254.1-569.1,253.6-569,253.1-569z"/>
	<path d="M185.9-561.3h1.8l4.9,11.3h-2.1l-1.1-2.7h-5.3L183-550h-2L185.9-561.3z M188.7-554.4l-1.9-4.5l-1.9,4.5H188.7z"/>
	<path d="M194.6-561.2h5c0.7,0,1.3,0.1,1.9,0.3c0.5,0.2,1,0.5,1.4,0.8c0.3,0.3,0.5,0.7,0.7,1.1c0.2,0.4,0.2,0.9,0.2,1.3v0
		c0,0.5-0.1,0.9-0.2,1.2c-0.1,0.4-0.3,0.7-0.6,1c-0.2,0.3-0.5,0.5-0.8,0.7c-0.3,0.2-0.7,0.3-1.1,0.5l3,4.2h-2.3l-2.8-3.9h0h-2.4v3.9
		h-2V-561.2z M199.4-555.6c0.7,0,1.3-0.2,1.7-0.5c0.4-0.3,0.6-0.8,0.6-1.4v0c0-0.6-0.2-1.1-0.6-1.4c-0.4-0.3-1-0.5-1.7-0.5h-2.9v3.8
		H199.4z"/>
	<path d="M208.9-559.4h-3.6v-1.8h9.1v1.8h-3.6v9.4h-2V-559.4z"/>
	<path d="M185.8-530.6c-0.9,0-1.7-0.1-2.5-0.4c-0.8-0.3-1.5-0.7-2.2-1.4l1.2-1.4c0.5,0.5,1.1,0.8,1.6,1.1c0.6,0.3,1.2,0.4,1.9,0.4
		c0.6,0,1.1-0.1,1.4-0.4c0.4-0.3,0.5-0.6,0.5-1v0c0-0.2,0-0.4-0.1-0.5c-0.1-0.2-0.2-0.3-0.4-0.4c-0.2-0.1-0.4-0.3-0.8-0.4
		c-0.3-0.1-0.8-0.2-1.3-0.4c-0.6-0.1-1.1-0.3-1.6-0.5c-0.5-0.2-0.9-0.4-1.2-0.6c-0.3-0.3-0.6-0.6-0.7-0.9c-0.2-0.4-0.2-0.8-0.2-1.3
		v0c0-0.5,0.1-0.9,0.3-1.3c0.2-0.4,0.5-0.7,0.8-1c0.3-0.3,0.7-0.5,1.2-0.7c0.5-0.2,1-0.2,1.5-0.2c0.8,0,1.6,0.1,2.2,0.4
		c0.7,0.2,1.3,0.6,1.9,1l-1.1,1.5c-0.5-0.4-1-0.7-1.5-0.9c-0.5-0.2-1-0.3-1.5-0.3c-0.6,0-1,0.1-1.3,0.4c-0.3,0.3-0.5,0.6-0.5,0.9v0
		c0,0.2,0,0.4,0.1,0.6c0.1,0.2,0.2,0.3,0.4,0.4c0.2,0.1,0.5,0.3,0.8,0.4c0.3,0.1,0.8,0.2,1.3,0.4c0.6,0.1,1.1,0.3,1.6,0.5
		c0.5,0.2,0.8,0.4,1.1,0.7c0.3,0.3,0.5,0.6,0.7,0.9c0.2,0.3,0.2,0.8,0.2,1.2v0c0,0.5-0.1,1-0.3,1.4c-0.2,0.4-0.5,0.8-0.8,1.1
		c-0.3,0.3-0.8,0.5-1.3,0.7C187-530.7,186.4-530.6,185.8-530.6z"/>
	<path d="M197.5-530.6c-0.9,0-1.7-0.2-2.4-0.5c-0.7-0.3-1.3-0.7-1.8-1.2c-0.5-0.5-0.9-1.1-1.2-1.8c-0.3-0.7-0.4-1.4-0.4-2.2v0
		c0-0.8,0.1-1.5,0.4-2.2c0.3-0.7,0.7-1.3,1.2-1.8c0.5-0.5,1.1-0.9,1.9-1.3c0.7-0.3,1.5-0.5,2.4-0.5c0.9,0,1.7,0.2,2.4,0.5
		c0.7,0.3,1.3,0.7,1.8,1.2c0.5,0.5,0.9,1.1,1.2,1.8c0.3,0.7,0.4,1.4,0.4,2.2v0c0,0.8-0.1,1.5-0.4,2.2c-0.3,0.7-0.7,1.3-1.2,1.8
		c-0.5,0.5-1.1,0.9-1.9,1.3C199.2-530.7,198.4-530.6,197.5-530.6z M197.5-532.4c0.6,0,1.1-0.1,1.5-0.3c0.5-0.2,0.9-0.5,1.2-0.8
		c0.3-0.4,0.6-0.8,0.8-1.3c0.2-0.5,0.3-1,0.3-1.5v0c0-0.5-0.1-1.1-0.3-1.5c-0.2-0.5-0.4-0.9-0.8-1.3c-0.3-0.4-0.7-0.6-1.2-0.9
		c-0.5-0.2-1-0.3-1.5-0.3c-0.6,0-1.1,0.1-1.5,0.3c-0.5,0.2-0.9,0.5-1.2,0.8c-0.3,0.4-0.6,0.8-0.8,1.3c-0.2,0.5-0.3,1-0.3,1.5v0
		c0,0.5,0.1,1.1,0.3,1.5c0.2,0.5,0.4,0.9,0.8,1.3c0.3,0.4,0.7,0.6,1.2,0.9C196.5-532.5,197-532.4,197.5-532.4z"/>
	<path d="M211-530.6c-0.8,0-1.6-0.1-2.3-0.4c-0.7-0.3-1.3-0.7-1.8-1.2c-0.5-0.5-0.9-1.1-1.2-1.8c-0.3-0.7-0.4-1.5-0.4-2.3v0
		c0-0.8,0.1-1.6,0.4-2.3c0.3-0.7,0.7-1.3,1.2-1.8c0.5-0.5,1.1-0.9,1.8-1.2c0.7-0.3,1.5-0.5,2.3-0.5c0.5,0,1,0,1.4,0.1
		c0.4,0.1,0.8,0.2,1.2,0.4c0.4,0.2,0.7,0.3,1,0.6c0.3,0.2,0.6,0.4,0.8,0.7l-1.3,1.5c-0.4-0.4-0.9-0.8-1.4-1
		c-0.5-0.3-1.1-0.4-1.7-0.4c-0.5,0-1,0.1-1.5,0.3c-0.5,0.2-0.8,0.5-1.2,0.8c-0.3,0.4-0.6,0.8-0.8,1.3c-0.2,0.5-0.3,1-0.3,1.5v0
		c0,0.5,0.1,1.1,0.3,1.5c0.2,0.5,0.4,0.9,0.8,1.3c0.3,0.4,0.7,0.6,1.2,0.9c0.5,0.2,0.9,0.3,1.5,0.3c0.7,0,1.3-0.1,1.8-0.4
		c0.5-0.3,1-0.6,1.5-1.1l1.3,1.3c-0.3,0.3-0.6,0.6-0.9,0.8c-0.3,0.2-0.7,0.4-1,0.6c-0.4,0.2-0.8,0.3-1.2,0.4
		C212-530.6,211.5-530.6,211-530.6z"/>
	<path d="M217.7-542h2v11.2h-2V-542z"/>
	<path d="M222.7-542h8.3v1.8h-6.3v2.9h5.6v1.8h-5.6v3h6.4v1.8h-8.4V-542z"/>
	<path d="M236.1-540.2h-3.6v-1.8h9.1v1.8h-3.6v9.4h-2V-540.2z"/>
	<path d="M247.1-535.2l-4.5-6.8h2.3l3.1,5l3.2-5h2.3l-4.5,6.7v4.5h-2V-535.2z"/>
</g>
<path d="M125.8-530.7c1.1-3.3,22.1-46.5,22.1-46.5l19.9,46.5H125.8z"/>
<path d="M357.1-581.2c-1.1,3.3-22.1,46.5-22.1,46.5L315-581.2H357.1z"/>
<rect x="488.4" y="-597.8" class="st0" width="1357.4" height="282"/>
<text transform="matrix(1 0 0 1 818.0996 -545.2524)"><tspan x="0" y="0" style="font-family:'GothamMedium'; font-size:72px;">the Botanic art </tspan><tspan x="184.1" y="86.4" style="font-family:'GothamMedium'; font-size:72px;">society</tspan></text>
<g>
	<path d="M369.8-581.3h-3.6v-1.9h9.3v1.9h-3.6v9.6h-2V-581.3z"/>
	<path d="M377.6-583.2h2v4.8h5.5v-4.8h2v11.5h-2v-4.8h-5.5v4.8h-2V-583.2z"/>
	<path d="M390-583.2h8.5v1.8H392v2.9h5.7v1.8H392v3.1h6.6v1.8H390V-583.2z"/>
	<path d="M405.9-583.2h5.1c1.3,0,2.3,0.3,3,1c0.5,0.5,0.8,1.1,0.8,1.9v0c0,0.3,0,0.7-0.1,0.9c-0.1,0.3-0.2,0.5-0.4,0.7
		c-0.1,0.2-0.3,0.4-0.5,0.5c-0.2,0.2-0.4,0.3-0.6,0.4c0.3,0.1,0.6,0.3,0.9,0.4c0.3,0.2,0.5,0.3,0.7,0.6c0.2,0.2,0.4,0.5,0.5,0.8
		c0.1,0.3,0.2,0.6,0.2,1v0c0,0.5-0.1,1-0.3,1.4c-0.2,0.4-0.5,0.7-0.9,1c-0.4,0.3-0.8,0.5-1.3,0.6c-0.5,0.1-1.1,0.2-1.7,0.2h-5.3
		V-583.2z M410.7-578.4c0.7,0,1.2-0.1,1.6-0.4c0.4-0.3,0.6-0.6,0.6-1.2v0c0-0.5-0.2-0.8-0.5-1.1c-0.3-0.3-0.8-0.4-1.5-0.4h-2.9v3
		H410.7z M411.2-573.5c0.7,0,1.2-0.1,1.6-0.4c0.4-0.3,0.6-0.7,0.6-1.2v0c0-0.5-0.2-0.9-0.6-1.1c-0.4-0.3-1-0.4-1.8-0.4h-3.2v3.1
		H411.2z"/>
	<path d="M423.2-571.5c-0.9,0-1.7-0.2-2.4-0.5c-0.7-0.3-1.4-0.7-1.9-1.3c-0.5-0.5-0.9-1.2-1.2-1.9c-0.3-0.7-0.4-1.5-0.4-2.3v0
		c0-0.8,0.1-1.6,0.4-2.3c0.3-0.7,0.7-1.3,1.2-1.9c0.5-0.5,1.2-1,1.9-1.3c0.7-0.3,1.5-0.5,2.4-0.5c0.9,0,1.7,0.2,2.4,0.5
		c0.7,0.3,1.4,0.7,1.9,1.3c0.5,0.5,0.9,1.2,1.2,1.9c0.3,0.7,0.4,1.5,0.4,2.3v0c0,0.8-0.1,1.6-0.4,2.3c-0.3,0.7-0.7,1.3-1.2,1.9
		c-0.5,0.5-1.2,1-1.9,1.3S424.1-571.5,423.2-571.5z M423.2-573.4c0.6,0,1.1-0.1,1.6-0.3c0.5-0.2,0.9-0.5,1.2-0.9
		c0.3-0.4,0.6-0.8,0.8-1.3c0.2-0.5,0.3-1,0.3-1.6v0c0-0.6-0.1-1.1-0.3-1.6c-0.2-0.5-0.5-0.9-0.8-1.3c-0.3-0.4-0.8-0.7-1.2-0.9
		c-0.5-0.2-1-0.3-1.6-0.3c-0.6,0-1.1,0.1-1.6,0.3s-0.9,0.5-1.2,0.9c-0.3,0.4-0.6,0.8-0.8,1.3c-0.2,0.5-0.3,1-0.3,1.6v0
		c0,0.6,0.1,1.1,0.3,1.6c0.2,0.5,0.5,0.9,0.8,1.3c0.3,0.4,0.8,0.7,1.2,0.9C422.2-573.5,422.7-573.4,423.2-573.4z"/>
	<path d="M434.5-581.3h-3.6v-1.9h9.3v1.9h-3.6v9.6h-2V-581.3z"/>
	<path d="M446.3-583.3h1.9l5,11.5h-2.1l-1.2-2.8h-5.4l-1.2,2.8h-2.1L446.3-583.3z M449.2-576.3l-2-4.6l-2,4.6H449.2z"/>
	<path d="M455.2-583.2h1.9l6.1,7.9v-7.9h2v11.5h-1.7l-6.3-8.2v8.2h-2V-583.2z"/>
	<path d="M468.3-583.2h2v11.5h-2V-583.2z"/>
	<path d="M478.7-571.5c-0.8,0-1.6-0.2-2.3-0.5c-0.7-0.3-1.3-0.7-1.8-1.3c-0.5-0.5-0.9-1.2-1.2-1.9c-0.3-0.7-0.4-1.5-0.4-2.3v0
		c0-0.8,0.1-1.6,0.4-2.3c0.3-0.7,0.7-1.3,1.2-1.9c0.5-0.5,1.2-1,1.9-1.3c0.7-0.3,1.5-0.5,2.4-0.5c0.5,0,1,0,1.4,0.1
		c0.4,0.1,0.8,0.2,1.2,0.4c0.4,0.2,0.7,0.3,1,0.6c0.3,0.2,0.6,0.5,0.9,0.7l-1.3,1.5c-0.5-0.4-0.9-0.8-1.5-1
		c-0.5-0.3-1.1-0.4-1.8-0.4c-0.5,0-1.1,0.1-1.5,0.3c-0.5,0.2-0.9,0.5-1.2,0.9c-0.3,0.4-0.6,0.8-0.8,1.3c-0.2,0.5-0.3,1-0.3,1.6v0
		c0,0.6,0.1,1.1,0.3,1.6c0.2,0.5,0.4,0.9,0.8,1.3c0.3,0.4,0.7,0.7,1.2,0.9c0.5,0.2,1,0.3,1.5,0.3c0.7,0,1.3-0.1,1.8-0.4
		c0.5-0.3,1-0.6,1.5-1.1l1.3,1.3c-0.3,0.3-0.6,0.6-0.9,0.8c-0.3,0.2-0.7,0.5-1,0.6c-0.4,0.2-0.8,0.3-1.2,0.4
		C479.7-571.6,479.2-571.5,478.7-571.5z"/>
	<path d="M371-563.6h1.9l5,11.5h-2.1l-1.2-2.8h-5.4l-1.2,2.8H366L371-563.6z M373.9-556.6l-2-4.6l-2,4.6H373.9z"/>
	<path d="M379.9-563.5h5.1c0.7,0,1.4,0.1,1.9,0.3c0.6,0.2,1,0.5,1.4,0.8c0.3,0.3,0.5,0.7,0.7,1.1c0.2,0.4,0.2,0.9,0.2,1.4v0
		c0,0.5-0.1,0.9-0.2,1.3c-0.1,0.4-0.3,0.7-0.6,1c-0.2,0.3-0.5,0.5-0.9,0.7c-0.3,0.2-0.7,0.4-1.1,0.5l3.1,4.3h-2.4l-2.8-4h0h-2.5v4
		h-2V-563.5z M384.9-557.9c0.7,0,1.3-0.2,1.7-0.5c0.4-0.3,0.6-0.8,0.6-1.4v0c0-0.6-0.2-1.1-0.6-1.4c-0.4-0.3-1-0.5-1.8-0.5h-2.9v3.9
		H384.9z"/>
	<path d="M394.6-561.7h-3.6v-1.9h9.3v1.9h-3.6v9.6h-2V-561.7z"/>
	<path d="M371-532.3c-0.9,0-1.7-0.2-2.5-0.5c-0.8-0.3-1.6-0.8-2.2-1.4l1.2-1.4c0.6,0.5,1.1,0.8,1.7,1.1c0.6,0.3,1.2,0.4,1.9,0.4
		c0.6,0,1.1-0.1,1.5-0.4c0.4-0.3,0.5-0.6,0.5-1v0c0-0.2,0-0.4-0.1-0.5c-0.1-0.2-0.2-0.3-0.4-0.5c-0.2-0.1-0.5-0.3-0.8-0.4
		c-0.3-0.1-0.8-0.2-1.3-0.4c-0.6-0.1-1.2-0.3-1.6-0.5c-0.5-0.2-0.9-0.4-1.2-0.7c-0.3-0.3-0.6-0.6-0.7-0.9c-0.2-0.4-0.3-0.8-0.3-1.3
		v0c0-0.5,0.1-0.9,0.3-1.4c0.2-0.4,0.5-0.8,0.8-1c0.3-0.3,0.8-0.5,1.2-0.7c0.5-0.2,1-0.2,1.6-0.2c0.8,0,1.6,0.1,2.3,0.4
		c0.7,0.2,1.3,0.6,1.9,1.1l-1.1,1.5c-0.5-0.4-1-0.7-1.6-0.9c-0.5-0.2-1-0.3-1.6-0.3c-0.6,0-1,0.1-1.4,0.4c-0.3,0.3-0.5,0.6-0.5,1v0
		c0,0.2,0,0.4,0.1,0.6c0.1,0.2,0.2,0.3,0.4,0.5c0.2,0.1,0.5,0.3,0.8,0.4c0.4,0.1,0.8,0.2,1.4,0.4c0.6,0.2,1.1,0.3,1.6,0.5
		c0.5,0.2,0.9,0.4,1.2,0.7c0.3,0.3,0.5,0.6,0.7,0.9c0.2,0.4,0.2,0.8,0.2,1.2v0c0,0.5-0.1,1-0.3,1.4c-0.2,0.4-0.5,0.8-0.8,1.1
		c-0.4,0.3-0.8,0.5-1.3,0.7C372.2-532.3,371.6-532.3,371-532.3z"/>
	<path d="M382.9-532.2c-0.9,0-1.7-0.2-2.4-0.5c-0.7-0.3-1.4-0.7-1.9-1.3c-0.5-0.5-0.9-1.2-1.2-1.9c-0.3-0.7-0.4-1.5-0.4-2.3v0
		c0-0.8,0.1-1.6,0.4-2.3c0.3-0.7,0.7-1.3,1.2-1.9c0.5-0.5,1.2-1,1.9-1.3c0.7-0.3,1.5-0.5,2.4-0.5c0.9,0,1.7,0.2,2.4,0.5
		c0.7,0.3,1.4,0.7,1.9,1.3c0.5,0.5,0.9,1.2,1.2,1.9c0.3,0.7,0.4,1.5,0.4,2.3v0c0,0.8-0.1,1.6-0.4,2.3c-0.3,0.7-0.7,1.3-1.2,1.9
		c-0.5,0.5-1.2,1-1.9,1.3C384.6-532.4,383.8-532.2,382.9-532.2z M383-534.1c0.6,0,1.1-0.1,1.6-0.3c0.5-0.2,0.9-0.5,1.2-0.9
		c0.3-0.4,0.6-0.8,0.8-1.3c0.2-0.5,0.3-1,0.3-1.6v0c0-0.6-0.1-1.1-0.3-1.6c-0.2-0.5-0.5-0.9-0.8-1.3c-0.3-0.4-0.8-0.7-1.2-0.9
		c-0.5-0.2-1-0.3-1.6-0.3s-1.1,0.1-1.6,0.3c-0.5,0.2-0.9,0.5-1.2,0.9c-0.3,0.4-0.6,0.8-0.8,1.3c-0.2,0.5-0.3,1-0.3,1.6v0
		c0,0.6,0.1,1.1,0.3,1.6c0.2,0.5,0.5,0.9,0.8,1.3c0.3,0.4,0.8,0.7,1.2,0.9C381.9-534.2,382.4-534.1,383-534.1z"/>
	<path d="M396.7-532.2c-0.8,0-1.6-0.2-2.3-0.5c-0.7-0.3-1.3-0.7-1.8-1.3c-0.5-0.5-0.9-1.2-1.2-1.9c-0.3-0.7-0.4-1.5-0.4-2.3v0
		c0-0.8,0.1-1.6,0.4-2.3c0.3-0.7,0.7-1.3,1.2-1.9c0.5-0.5,1.2-1,1.9-1.3c0.7-0.3,1.5-0.5,2.4-0.5c0.5,0,1,0,1.4,0.1
		c0.4,0.1,0.8,0.2,1.2,0.4c0.4,0.2,0.7,0.3,1,0.6c0.3,0.2,0.6,0.5,0.9,0.7l-1.3,1.5c-0.5-0.4-0.9-0.8-1.5-1
		c-0.5-0.3-1.1-0.4-1.8-0.4c-0.5,0-1.1,0.1-1.5,0.3c-0.5,0.2-0.9,0.5-1.2,0.9c-0.3,0.4-0.6,0.8-0.8,1.3c-0.2,0.5-0.3,1-0.3,1.6v0
		c0,0.6,0.1,1.1,0.3,1.6c0.2,0.5,0.4,0.9,0.8,1.3c0.3,0.4,0.7,0.7,1.2,0.9c0.5,0.2,1,0.3,1.5,0.3c0.7,0,1.3-0.1,1.8-0.4
		c0.5-0.3,1-0.6,1.5-1.1l1.3,1.3c-0.3,0.3-0.6,0.6-0.9,0.8c-0.3,0.2-0.7,0.5-1,0.6c-0.4,0.2-0.8,0.3-1.2,0.4
		C397.7-532.3,397.2-532.2,396.7-532.2z"/>
	<path d="M403.6-543.9h2v11.5h-2V-543.9z"/>
	<path d="M408.6-543.9h8.5v1.8h-6.5v2.9h5.7v1.8h-5.7v3.1h6.6v1.8h-8.6V-543.9z"/>
	<path d="M422.4-542h-3.6v-1.9h9.3v1.9h-3.6v9.6h-2V-542z"/>
	<path d="M433.6-537l-4.6-6.9h2.4l3.2,5.1l3.2-5.1h2.3l-4.6,6.9v4.6h-2V-537z"/>
</g>
<g>
	<path d="M287.7,225.2h-13.3v-6.8h34.1v6.8h-13.3v35.2h-7.4V225.2z"/>
	<path d="M316.2,218.3h7.3v17.5h20.2v-17.5h7.3v42h-7.3v-17.7h-20.2v17.7h-7.3V218.3z"/>
	<path d="M361.8,218.3h31.1v6.7h-23.8v10.8h21.1v6.7h-21.1v11.2h24.1v6.7h-31.4V218.3z"/>
	<path d="M420,218.3h18.8c4.8,0,8.5,1.2,11,3.7c1.9,1.9,2.8,4.2,2.8,7v0.1c0,1.3-0.2,2.4-0.5,3.4c-0.3,1-0.8,1.8-1.3,2.6
		c-0.5,0.7-1.2,1.4-1.9,1.9c-0.7,0.6-1.5,1-2.2,1.4c1.2,0.4,2.4,1,3.4,1.5c1,0.6,1.9,1.3,2.6,2.1c0.7,0.8,1.3,1.7,1.7,2.8
		c0.4,1.1,0.6,2.3,0.6,3.8v0.1c0,1.9-0.4,3.5-1.1,5c-0.7,1.4-1.8,2.6-3.1,3.6c-1.4,1-3,1.7-4.9,2.2c-1.9,0.5-4,0.8-6.4,0.8H420
		V218.3z M437.4,236c2.4,0,4.3-0.5,5.7-1.4c1.4-0.9,2.2-2.4,2.2-4.3v-0.1c0-1.7-0.6-3-1.9-3.9c-1.3-0.9-3.1-1.4-5.5-1.4h-10.6V236
		H437.4z M439.5,253.8c2.5,0,4.5-0.5,5.9-1.4c1.4-1,2.2-2.4,2.2-4.3v-0.1c0-1.8-0.7-3.2-2.1-4.2c-1.4-1-3.6-1.5-6.5-1.5h-11.7v11.5
		H439.5z"/>
	<path d="M483.4,261.1c-3.2,0-6.2-0.6-8.9-1.7c-2.7-1.1-5-2.7-6.9-4.7c-1.9-2-3.4-4.2-4.5-6.9c-1.1-2.6-1.6-5.4-1.6-8.4v-0.1
		c0-3,0.5-5.7,1.6-8.4c1.1-2.6,2.6-4.9,4.6-6.9c2-2,4.3-3.5,7-4.7c2.7-1.2,5.6-1.7,8.9-1.7c3.2,0,6.2,0.6,8.9,1.7
		c2.7,1.1,5,2.7,6.9,4.7c1.9,2,3.4,4.3,4.5,6.9c1.1,2.6,1.6,5.4,1.6,8.4v0.1c0,3-0.5,5.8-1.6,8.4c-1.1,2.6-2.6,4.9-4.6,6.9
		c-2,2-4.3,3.5-7,4.7C489.6,260.5,486.6,261.1,483.4,261.1z M483.5,254.3c2.1,0,4-0.4,5.7-1.2c1.7-0.8,3.2-1.8,4.5-3.2
		c1.2-1.3,2.2-2.9,2.9-4.7c0.7-1.8,1-3.7,1-5.8v-0.1c0-2-0.3-4-1-5.8c-0.7-1.8-1.7-3.4-2.9-4.7c-1.3-1.3-2.8-2.4-4.5-3.2
		c-1.8-0.8-3.7-1.2-5.7-1.2c-2.1,0-4,0.4-5.7,1.2c-1.7,0.8-3.2,1.8-4.5,3.2c-1.2,1.3-2.2,2.9-2.9,4.7c-0.7,1.8-1,3.7-1,5.8v0.1
		c0,2,0.3,4,1,5.8c0.7,1.8,1.7,3.4,2.9,4.7c1.3,1.3,2.8,2.4,4.5,3.2C479.5,253.9,481.4,254.3,483.5,254.3z"/>
	<path d="M524.7,225.2h-13.3v-6.8h34.1v6.8h-13.3v35.2h-7.4V225.2z"/>
	<path d="M568.1,218h6.8l18.5,42.3h-7.8l-4.3-10.1h-19.9l-4.3,10.1h-7.6L568.1,218z M578.7,243.7l-7.3-16.8l-7.2,16.8H578.7z"/>
	<path d="M600.6,218.3h6.8l22.5,29v-29h7.3v42h-6.2L608,230.5v29.9h-7.3V218.3z"/>
	<path d="M648.5,218.3h7.3v42h-7.3V218.3z"/>
	<path d="M686.6,261.1c-3.1,0-5.9-0.6-8.5-1.7c-2.6-1.1-4.9-2.6-6.8-4.6c-1.9-1.9-3.4-4.2-4.5-6.9c-1.1-2.6-1.6-5.5-1.6-8.5v-0.1
		c0-3,0.5-5.8,1.6-8.4c1.1-2.6,2.6-4.9,4.5-6.9c1.9-2,4.2-3.5,6.9-4.7c2.6-1.1,5.6-1.7,8.8-1.7c1.9,0,3.7,0.2,5.3,0.5
		c1.6,0.3,3,0.8,4.3,1.4c1.3,0.6,2.5,1.3,3.7,2.1c1.1,0.8,2.2,1.7,3.2,2.6l-4.7,5.5c-1.7-1.6-3.5-2.8-5.3-3.8c-1.9-1-4-1.4-6.4-1.4
		c-2,0-3.9,0.4-5.6,1.2c-1.7,0.8-3.2,1.8-4.4,3.2c-1.2,1.3-2.2,2.9-2.9,4.7c-0.7,1.8-1,3.7-1,5.8v0.1c0,2,0.3,4,1,5.8
		c0.7,1.8,1.6,3.4,2.9,4.8c1.2,1.4,2.7,2.4,4.4,3.2c1.7,0.8,3.5,1.2,5.6,1.2c2.6,0,4.8-0.5,6.6-1.5c1.8-1,3.7-2.3,5.5-4l4.7,4.8
		c-1.1,1.2-2.2,2.2-3.4,3.1c-1.2,0.9-2.5,1.7-3.8,2.3c-1.4,0.7-2.9,1.2-4.5,1.5C690.4,260.9,688.6,261.1,686.6,261.1z"/>
	<path d="M292.2,290h6.8l18.5,42.3h-7.8l-4.3-10.1h-19.9l-4.3,10.1h-7.6L292.2,290z M302.8,315.7l-7.3-16.8l-7.2,16.8H302.8z"/>
	<path d="M324.7,290.3h18.7c2.6,0,5,0.4,7,1.1c2,0.7,3.7,1.8,5.1,3.1c1.1,1.2,2,2.5,2.6,4c0.6,1.5,0.9,3.2,0.9,5v0.1
		c0,1.7-0.2,3.3-0.7,4.7c-0.5,1.4-1.2,2.6-2.1,3.7c-0.9,1.1-1.9,2-3.2,2.7c-1.2,0.7-2.6,1.3-4,1.7l11.3,15.9h-8.7l-10.4-14.6h-0.1
		h-9.1v14.6h-7.3V290.3z M342.9,311.2c2.6,0,4.8-0.6,6.3-1.9c1.6-1.3,2.3-3,2.3-5.2V304c0-2.3-0.8-4-2.3-5.2
		c-1.5-1.2-3.7-1.8-6.4-1.8h-10.8v14.2H342.9z"/>
	<path d="M378.4,297.2h-13.3v-6.8h34.1v6.8h-13.3v35.2h-7.4V297.2z"/>
	<path d="M292.1,404.9c-3.2,0-6.3-0.6-9.3-1.6c-3-1.1-5.7-2.8-8.2-5.1l4.4-5.3c2,1.8,4.1,3.1,6.2,4c2.1,0.9,4.4,1.4,7.1,1.4
		c2.3,0,4.1-0.5,5.4-1.4c1.3-1,2-2.2,2-3.8V393c0-0.8-0.1-1.4-0.4-2c-0.3-0.6-0.7-1.1-1.4-1.7c-0.7-0.5-1.7-1-2.9-1.4
		c-1.2-0.4-2.8-0.9-4.8-1.3c-2.2-0.5-4.2-1.1-6-1.8c-1.7-0.7-3.2-1.5-4.4-2.4c-1.2-0.9-2.1-2.1-2.7-3.4c-0.6-1.4-0.9-3-0.9-4.9v-0.1
		c0-1.8,0.4-3.5,1.1-5c0.7-1.5,1.7-2.8,2.9-3.8c1.2-1.1,2.8-1.9,4.5-2.5c1.8-0.6,3.7-0.9,5.8-0.9c3.1,0,5.9,0.5,8.3,1.4
		c2.5,0.9,4.8,2.2,6.9,3.9l-4,5.6c-1.9-1.4-3.8-2.5-5.7-3.2c-1.9-0.7-3.8-1.1-5.7-1.1c-2.2,0-3.8,0.5-5,1.4c-1.2,1-1.8,2.1-1.8,3.5
		v0.1c0,0.8,0.1,1.5,0.4,2.1c0.3,0.6,0.8,1.2,1.5,1.7c0.7,0.5,1.8,1,3.1,1.4c1.3,0.4,3,0.9,5,1.4c2.2,0.6,4.2,1.2,5.9,1.9
		c1.7,0.7,3.1,1.5,4.2,2.5c1.1,1,2,2.1,2.6,3.4c0.6,1.3,0.9,2.8,0.9,4.5v0.1c0,2-0.4,3.7-1.1,5.3c-0.7,1.6-1.8,2.9-3.1,4
		c-1.3,1.1-2.9,1.9-4.7,2.5C296.3,404.7,294.3,404.9,292.1,404.9z"/>
	<path d="M335.8,405.1c-3.2,0-6.2-0.6-8.9-1.7c-2.7-1.1-5-2.7-6.9-4.6c-1.9-2-3.4-4.2-4.5-6.9c-1.1-2.6-1.6-5.4-1.6-8.4v-0.1
		c0-3,0.5-5.7,1.6-8.4c1.1-2.6,2.6-4.9,4.6-6.9c2-2,4.3-3.5,7-4.7c2.7-1.2,5.6-1.7,8.9-1.7c3.2,0,6.2,0.6,8.9,1.7
		c2.7,1.1,5,2.7,6.9,4.7c1.9,2,3.4,4.3,4.5,6.9c1.1,2.6,1.6,5.4,1.6,8.4v0.1c0,3-0.5,5.8-1.6,8.4c-1.1,2.6-2.6,4.9-4.6,6.9
		c-2,2-4.3,3.6-7,4.7C342,404.5,339,405.1,335.8,405.1z M335.9,398.3c2.1,0,4-0.4,5.7-1.2c1.7-0.8,3.2-1.8,4.5-3.2
		c1.2-1.3,2.2-2.9,2.9-4.7c0.7-1.8,1-3.7,1-5.8v-0.1c0-2-0.3-4-1-5.8c-0.7-1.8-1.7-3.4-2.9-4.7c-1.3-1.3-2.8-2.4-4.5-3.2
		c-1.8-0.8-3.7-1.2-5.7-1.2c-2.1,0-4,0.4-5.7,1.2c-1.7,0.8-3.2,1.8-4.5,3.2c-1.2,1.3-2.2,2.9-2.9,4.7c-0.7,1.8-1,3.7-1,5.8v0.1
		c0,2,0.3,4,1,5.8c0.7,1.8,1.7,3.4,2.9,4.7c1.3,1.3,2.8,2.4,4.5,3.2C331.9,397.9,333.8,398.3,335.9,398.3z"/>
	<path d="M386.3,405.1c-3.1,0-5.9-0.6-8.5-1.7c-2.6-1.1-4.9-2.6-6.8-4.6c-1.9-1.9-3.4-4.2-4.5-6.9c-1.1-2.6-1.6-5.5-1.6-8.5v-0.1
		c0-3,0.5-5.8,1.6-8.4c1.1-2.6,2.6-4.9,4.5-6.9c1.9-2,4.2-3.5,6.9-4.7c2.6-1.1,5.6-1.7,8.8-1.7c1.9,0,3.7,0.2,5.3,0.5
		c1.6,0.3,3,0.8,4.4,1.4c1.3,0.6,2.5,1.3,3.7,2.1c1.1,0.8,2.2,1.7,3.2,2.6l-4.7,5.5c-1.7-1.6-3.5-2.8-5.3-3.8c-1.9-1-4-1.4-6.4-1.4
		c-2,0-3.9,0.4-5.6,1.2c-1.7,0.8-3.2,1.8-4.4,3.2c-1.2,1.3-2.2,2.9-2.9,4.7c-0.7,1.8-1,3.7-1,5.8v0.1c0,2,0.3,4,1,5.8
		c0.7,1.8,1.6,3.4,2.9,4.8c1.2,1.4,2.7,2.4,4.4,3.2c1.7,0.8,3.5,1.2,5.6,1.2c2.6,0,4.8-0.5,6.6-1.5c1.8-1,3.7-2.3,5.5-4l4.7,4.8
		c-1.1,1.2-2.2,2.2-3.4,3.1c-1.2,0.9-2.5,1.7-3.8,2.3c-1.4,0.7-2.9,1.2-4.5,1.5C390.1,404.9,388.3,405.1,386.3,405.1z"/>
	<path d="M411.4,362.3h7.3v42h-7.3V362.3z"/>
	<path d="M430,362.3h31.1v6.7h-23.8v10.8h21.1v6.7h-21.1v11.2h24.1v6.7H430V362.3z"/>
	<path d="M480.6,369.2h-13.3v-6.8h34.1v6.8H488v35.2h-7.4V369.2z"/>
	<path d="M521.5,387.8l-16.7-25.4h8.7l11.8,18.6l11.9-18.6h8.5l-16.7,25.3v16.7h-7.4V387.8z"/>
</g>
<path d="M132.4,274.2c1.5-4.3,29.3-60.5,29.3-60.5l25.4,61L132.4,274.2z"/>
<path d="M131.5,335c1.5-4.3,29.3-60.5,29.3-60.5l25.4,61L131.5,335z"/>
<path d="M190.4,335.5c1.5-4.3,29.3-60.5,29.3-60.5l25.4,61L190.4,335.5z"/>
<circle cx="219.7" cy="246.9" r="15.9"/>
<rect x="-651.2" y="190.7" class="st0" width="531.6" height="282"/>
<text transform="matrix(1 0 0 1 -651.1809 243.2687)"><tspan x="0" y="0" style="font-family:'GothamMedium'; font-size:72px;">the Botanic </tspan><tspan x="0" y="86.4" style="font-family:'GothamMedium'; font-size:72px;">art </tspan><tspan x="0" y="172.8" style="font-family:'GothamMedium'; font-size:72px;">society</tspan></text>
<g>
	<path d="M229.8-408.3v-9.7H226v-2.6h10.7v2.6h-3.9v9.7H229.8z"/>
	<path d="M238-408.3v-12.2h2.9v4.5h4.7v-4.5h2.9v12.2h-2.9v-5.1h-4.7v5.1H238z"/>
	<path d="M251.3-408.3v-12.2h7.5v2.5h-4.7v2.2h4v2.5h-4v2.4h4.8v2.6H251.3z"/>
	<path d="M266.1-408.3v-12.2h3.8c1.4,0,2.5,0.3,3.2,0.8c0.7,0.5,1.1,1.3,1.1,2.3c0,0.6-0.2,1.2-0.5,1.6c-0.3,0.4-0.8,0.8-1.5,1
		c0.7,0.2,1.3,0.5,1.7,1s0.6,1.2,0.6,1.9c0,1.2-0.4,2.1-1.3,2.7c-0.9,0.6-2.2,0.9-3.9,0.9H266.1z M268.8-415.7h1
		c0.6,0,1-0.1,1.3-0.4c0.3-0.3,0.5-0.6,0.5-1.1s-0.2-0.8-0.5-1s-0.8-0.3-1.4-0.3h-0.9V-415.7z M268.8-410.6h1.2c0.6,0,1-0.1,1.4-0.4
		s0.5-0.7,0.5-1.2c0-0.5-0.2-0.9-0.5-1.1c-0.3-0.3-0.8-0.4-1.4-0.4h-1.2V-410.6z"/>
	<path d="M276-414.5c0-0.9,0.2-1.8,0.5-2.5c0.3-0.8,0.8-1.5,1.4-2.1c0.6-0.6,1.2-1.1,2-1.4c0.8-0.3,1.6-0.5,2.4-0.5s1.6,0.2,2.4,0.5
		c0.8,0.3,1.4,0.8,2,1.4c0.6,0.6,1,1.3,1.4,2.1s0.5,1.6,0.5,2.6c0,0.8-0.1,1.5-0.3,2.2s-0.5,1.3-1,1.8c-0.6,0.8-1.3,1.4-2.2,1.8
		c-0.9,0.4-1.8,0.7-2.8,0.7c-0.8,0-1.6-0.2-2.4-0.5c-0.8-0.3-1.4-0.8-2-1.4c-0.6-0.6-1.1-1.3-1.4-2.1
		C276.1-412.7,276-413.6,276-414.5z M279-414.5c0,1.1,0.3,2,0.9,2.7c0.6,0.7,1.4,1.1,2.3,1.1c0.9,0,1.7-0.4,2.3-1.1
		c0.6-0.7,0.9-1.6,0.9-2.7c0-1.1-0.3-2-0.9-2.7c-0.6-0.7-1.4-1.1-2.3-1.1c-0.9,0-1.7,0.4-2.3,1.1C279.3-416.4,279-415.5,279-414.5z"
		/>
	<path d="M293-408.3v-9.7h-3.9v-2.6h10.7v2.6h-3.9v9.7H293z"/>
	<path d="M298-408.3l6.2-12.6h0.2l6.1,12.6h-3.1l-0.8-1.8h-5l-0.8,1.8H298z M302.5-412.2h3.2l-1.6-3.8L302.5-412.2z"/>
	<path d="M311.4-408.3V-421h0.3l7.6,7.1v-6.7h2.7v12.7h-0.3l-7.6-7.1v6.7H311.4z"/>
	<path d="M324.8-408.3v-12.2h2.9v12.2H324.8z"/>
	<path d="M339.6-416.7c-0.5-0.5-1.1-1-1.6-1.2s-1.1-0.4-1.7-0.4c-1,0-1.9,0.4-2.5,1.1s-1,1.6-1,2.7s0.3,2,1,2.7c0.7,0.7,1.5,1,2.5,1
		c0.6,0,1.2-0.1,1.9-0.4c0.6-0.3,1.2-0.6,1.8-1.2l-0.2,3.2c-0.5,0.4-1.1,0.6-1.7,0.8c-0.6,0.2-1.3,0.3-1.9,0.3
		c-0.7,0-1.4-0.1-2.1-0.3c-0.7-0.2-1.3-0.6-1.8-1c-0.8-0.6-1.4-1.4-1.8-2.3s-0.6-1.9-0.6-2.9c0-0.9,0.2-1.8,0.5-2.5
		c0.3-0.8,0.8-1.5,1.3-2.1c0.6-0.6,1.3-1.1,2.1-1.4s1.6-0.5,2.5-0.5c0.7,0,1.3,0.1,2,0.3c0.6,0.2,1.2,0.5,1.8,0.9L339.6-416.7z"/>
	<path d="M345-408.3l6.2-12.6h0.2l6.1,12.6h-3.1l-0.8-1.8h-5l-0.8,1.8H345z M349.6-412.2h3.2l-1.6-3.8L349.6-412.2z"/>
	<path d="M358.4-408.3v-12.2h3.1c1,0,1.8,0.1,2.3,0.2c0.6,0.1,1,0.4,1.5,0.7c0.5,0.3,0.8,0.7,1.1,1.2c0.3,0.5,0.4,1,0.4,1.5
		c0,0.8-0.2,1.4-0.6,2c-0.4,0.6-1,1-1.7,1.4l3.7,5.3h-3.3l-3.3-4.8h-0.4v4.8H358.4z M361.7-418.3h-0.5v3.4h0.6
		c0.7,0,1.3-0.1,1.7-0.4c0.4-0.3,0.6-0.7,0.6-1.3c0-0.6-0.2-1-0.6-1.3C363.2-418.2,362.6-418.3,361.7-418.3z"/>
	<path d="M371.9-408.3v-9.7H368v-2.6h10.7v2.6h-3.9v9.7H371.9z"/>
</g>
<rect x="-700" y="579.6" class="st0" width="918.6" height="229"/>
<text transform="matrix(1 0 0 1 -347.65 596.8694)"><tspan x="0" y="0" class="st1 st2">the Botanic art </tspan><tspan x="66.2" y="21.6" class="st3 st4">society</tspan></text>
<line class="st5" x1="219" y1="-399.5" x2="372.5" y2="-399.5"/>
<g>
	<path d="M471.9-416.8v-9.7H468v-2.6h10.7v2.6h-3.9v9.7H471.9z"/>
	<path d="M480.1-416.8V-429h2.9v4.5h4.7v-4.5h2.9v12.2h-2.9v-5.1H483v5.1H480.1z"/>
	<path d="M493.4-416.8V-429h7.5v2.5h-4.7v2.2h4v2.5h-4v2.4h4.8v2.6H493.4z"/>
	<path d="M508.2-416.8V-429h3.8c1.4,0,2.5,0.3,3.2,0.8s1.1,1.3,1.1,2.3c0,0.6-0.2,1.2-0.5,1.6c-0.3,0.4-0.8,0.8-1.5,1
		c0.7,0.2,1.3,0.5,1.7,1c0.4,0.5,0.6,1.2,0.6,1.9c0,1.2-0.4,2.1-1.3,2.7c-0.9,0.6-2.2,0.9-3.9,0.9H508.2z M510.8-424.2h1
		c0.6,0,1-0.1,1.3-0.4c0.3-0.3,0.5-0.6,0.5-1.1s-0.2-0.8-0.5-1s-0.8-0.3-1.4-0.3h-0.9V-424.2z M510.8-419h1.2c0.6,0,1-0.1,1.4-0.4
		c0.3-0.3,0.5-0.7,0.5-1.2c0-0.5-0.2-0.9-0.5-1.1s-0.8-0.4-1.4-0.4h-1.2V-419z"/>
	<path d="M518-422.9c0-0.9,0.2-1.8,0.5-2.5c0.3-0.8,0.8-1.5,1.4-2.1c0.6-0.6,1.2-1.1,2-1.4c0.8-0.3,1.6-0.5,2.4-0.5s1.6,0.2,2.4,0.5
		c0.8,0.3,1.4,0.8,2,1.4c0.6,0.6,1,1.3,1.4,2.1c0.3,0.8,0.5,1.6,0.5,2.6c0,0.8-0.1,1.5-0.3,2.2s-0.5,1.3-1,1.8
		c-0.6,0.8-1.3,1.4-2.2,1.8c-0.9,0.4-1.8,0.7-2.8,0.7c-0.8,0-1.6-0.2-2.4-0.5c-0.8-0.3-1.4-0.8-2-1.4c-0.6-0.6-1.1-1.3-1.4-2.1
		C518.2-421.2,518-422,518-422.9z M521-422.9c0,1.1,0.3,2,0.9,2.7s1.4,1.1,2.3,1.1c0.9,0,1.7-0.4,2.3-1.1c0.6-0.7,0.9-1.6,0.9-2.7
		c0-1.1-0.3-2-0.9-2.7c-0.6-0.7-1.4-1.1-2.3-1.1c-0.9,0-1.7,0.4-2.3,1.1C521.3-424.9,521-424,521-422.9z"/>
	<path d="M535-416.8v-9.7h-3.9v-2.6h10.7v2.6h-3.9v9.7H535z"/>
	<path d="M540-416.8l6.2-12.6h0.2l6.1,12.6h-3.1l-0.8-1.8h-5l-0.8,1.8H540z M544.6-420.7h3.2l-1.6-3.8L544.6-420.7z"/>
	<path d="M553.5-416.8v-12.6h0.3l7.6,7.1v-6.7h2.7v12.7h-0.3l-7.6-7.1v6.7H553.5z"/>
	<path d="M566.9-416.8V-429h2.9v12.2H566.9z"/>
	<path d="M581.7-425.1c-0.5-0.5-1.1-1-1.6-1.2c-0.5-0.3-1.1-0.4-1.7-0.4c-1,0-1.9,0.4-2.5,1.1s-1,1.6-1,2.7c0,1.1,0.3,2,1,2.7
		s1.5,1,2.5,1c0.6,0,1.2-0.1,1.9-0.4s1.2-0.6,1.8-1.2l-0.2,3.2c-0.5,0.4-1.1,0.6-1.7,0.8c-0.6,0.2-1.3,0.3-1.9,0.3
		c-0.7,0-1.4-0.1-2.1-0.3s-1.3-0.6-1.8-1c-0.8-0.6-1.4-1.4-1.8-2.3c-0.4-0.9-0.6-1.9-0.6-2.9c0-0.9,0.2-1.8,0.5-2.5
		c0.3-0.8,0.8-1.5,1.3-2.1c0.6-0.6,1.3-1.1,2.1-1.4c0.8-0.3,1.6-0.5,2.5-0.5c0.7,0,1.3,0.1,2,0.3c0.6,0.2,1.2,0.5,1.8,0.9
		L581.7-425.1z"/>
	<path d="M587-416.8l6.2-12.6h0.2l6.1,12.6h-3.1l-0.8-1.8h-5l-0.8,1.8H587z M591.6-420.7h3.2l-1.6-3.8L591.6-420.7z"/>
	<path d="M600.5-416.8V-429h3.1c1,0,1.8,0.1,2.3,0.2c0.6,0.1,1,0.4,1.5,0.7c0.5,0.3,0.8,0.7,1.1,1.2c0.3,0.5,0.4,1,0.4,1.5
		c0,0.8-0.2,1.4-0.6,2s-1,1-1.7,1.4l3.7,5.3H607l-3.3-4.8h-0.4v4.8H600.5z M603.8-426.8h-0.5v3.4h0.6c0.7,0,1.3-0.1,1.7-0.4
		c0.4-0.3,0.6-0.7,0.6-1.3c0-0.6-0.2-1-0.6-1.3S604.6-426.8,603.8-426.8z"/>
	<path d="M614-416.8v-9.7h-3.9v-2.6h10.7v2.6h-3.9v9.7H614z"/>
</g>
<path d="M460.6-395.1c-1.5-0.5-20.4-9.7-20.4-9.7l20.4-8.7V-395.1z"/>
<path d="M481-395c-1.5-0.5-20.4-9.7-20.4-9.7l20.4-8.7V-395z"/>
<path d="M460.6-413.2c-1.5-0.5-20.4-9.7-20.4-9.7l20.4-8.7V-413.2z"/>
</svg>
