<?xml version="1.0" encoding="UTF-8" standalone="no"?>
<!DOCTYPE svg PUBLIC "-//W3C//DTD SVG 1.1//EN" "http://www.w3.org/Graphics/SVG/1.1/DTD/svg11.dtd">
<svg version="1.1" xmlns="http://www.w3.org/2000/svg" xmlns:xlink="http://www.w3.org/1999/xlink" preserveAspectRatio="xMidYMid meet" viewBox="0 0 500 180" width="500" height="180"><defs><path d="M146.59 28.92L146.59 23.76L172.52 23.76L172.52 28.92L162.41 28.92L162.41 55.68L156.78 55.68L156.78 28.92L146.59 28.92Z" id="k6KhpbYGV"></path><path d="M183.92 23.68L183.92 36.98L199.28 36.98L199.28 23.68L204.83 23.68L204.83 55.61L199.28 55.61L199.28 42.15L183.92 42.15L183.92 55.61L178.37 55.61L178.37 23.68L183.92 23.68Z" id="a2dJSXm6A0"></path><path d="M236.68 23.68L236.68 28.77L218.58 28.77L218.58 36.98L234.62 36.98L234.62 42.08L218.58 42.08L218.58 50.59L236.9 50.59L236.9 55.68L213.04 55.68L213.04 23.68L236.68 23.68Z" id="c1SiRnooG"></path><path d="M271.57 23.68C275.22 23.68 278.03 24.59 279.93 26.49C281.38 27.94 282.06 29.68 282.06 31.81C282.06 31.82 282.06 31.88 282.06 31.89C282.06 32.88 281.91 33.71 281.68 34.47C281.45 35.23 281.07 35.84 280.69 36.45C280.31 36.98 279.78 37.51 279.25 37.89C278.72 38.35 278.11 38.65 277.57 38.96C278.49 39.26 279.4 39.72 280.16 40.1C280.92 40.56 281.6 41.09 282.14 41.7C282.67 42.3 283.12 42.99 283.43 43.82C283.73 44.66 283.88 45.57 283.88 46.71C283.88 46.72 283.88 46.78 283.88 46.79C283.88 48.23 283.58 49.45 283.05 50.59C282.52 51.65 281.68 52.57 280.69 53.33C279.63 54.09 278.41 54.62 276.97 55C275.52 55.38 273.93 55.61 272.1 55.61C271.11 55.61 266.17 55.61 257.28 55.61L257.28 23.68C265.85 23.68 270.62 23.68 271.57 23.68ZM274.84 36.07C275.9 35.39 276.51 34.25 276.51 32.8C276.51 32.79 276.51 32.73 276.51 32.73C276.51 31.43 276.05 30.44 275.07 29.76C274.08 29.08 272.71 28.7 270.89 28.7C270.35 28.7 267.66 28.7 262.83 28.7L262.83 37.13L270.51 37.13C272.68 36.88 274.13 36.53 274.84 36.07ZM276.59 49.6C277.65 48.84 278.26 47.78 278.26 46.33C278.26 46.33 278.26 46.26 278.26 46.26C278.26 44.89 277.73 43.82 276.66 43.06C275.6 42.3 273.93 41.92 271.72 41.92C271.13 41.92 268.16 41.92 262.83 41.92L262.83 50.67L272.1 50.67C274.38 50.41 275.88 50.06 276.59 49.6Z" id="a3gq7FvU6o"></path><path d="M298.71 54.92C296.66 54.09 294.91 52.87 293.46 51.35C292.02 49.83 290.88 48.16 290.04 46.1C289.21 44.13 288.83 42 288.83 39.72C288.83 39.71 288.83 39.65 288.83 39.64C288.83 37.36 289.21 35.31 290.04 33.26C290.88 31.28 292.02 29.53 293.54 28.01C295.06 26.49 296.81 25.35 298.86 24.44C300.91 23.53 303.12 23.15 305.63 23.15C308.06 23.15 310.34 23.6 312.39 24.44C314.44 25.28 316.19 26.49 317.64 28.01C319.08 29.53 320.22 31.28 321.06 33.26C321.89 35.23 322.27 37.36 322.27 39.64C322.27 39.65 322.27 39.71 322.27 39.72C322.27 42 321.89 44.13 321.06 46.1C320.22 48.08 319.08 49.83 317.56 51.35C316.04 52.87 314.29 54.01 312.24 54.92C310.19 55.76 307.91 56.22 305.47 56.22C303.04 56.22 300.76 55.76 298.71 54.92ZM309.88 50.13C311.17 49.53 312.32 48.77 313.3 47.7C314.22 46.71 314.98 45.5 315.51 44.13C316.04 42.76 316.27 41.32 316.27 39.72C316.27 39.71 316.27 39.65 316.27 39.64C316.27 38.12 316.04 36.6 315.51 35.23C314.98 33.87 314.22 32.65 313.3 31.66C312.32 30.67 311.17 29.84 309.88 29.23C308.51 28.62 307.07 28.32 305.55 28.32C303.95 28.32 302.51 28.62 301.22 29.23C299.92 29.84 298.78 30.6 297.8 31.66C296.88 32.65 296.12 33.87 295.59 35.23C295.06 36.6 294.83 38.05 294.83 39.64C294.83 39.65 294.83 39.71 294.83 39.72C294.83 41.24 295.06 42.76 295.59 44.13C296.12 45.5 296.88 46.71 297.8 47.7C298.78 48.69 299.92 49.53 301.22 50.13C302.51 50.74 303.95 51.05 305.55 51.05C307.15 51.05 308.59 50.74 309.88 50.13Z" id="aXmSPDSLy"></path><path d="M326.76 28.92L326.76 23.76L352.68 23.76L352.68 28.92L342.57 28.92L342.57 55.68L336.95 55.68L336.95 28.92L326.76 28.92Z" id="f3BM2e2DXN"></path><path d="M375.03 23.45L389.09 55.61L383.16 55.61L379.9 47.93L364.77 47.93L361.5 55.61L355.72 55.61L369.86 23.45L375.03 23.45ZM372.37 30.22L366.9 42.99L377.92 42.99L372.37 30.22Z" id="d3gI9xEDno"></path><path d="M399.74 23.68L416.84 45.72L416.84 23.68L422.39 23.68L422.39 55.61L417.68 55.61L400.19 32.95L400.19 55.68L394.64 55.68L394.64 23.68L399.74 23.68Z" id="d2eAeOxM8N"></path><path d="M436.53 23.68L436.53 55.61L430.98 55.61L430.98 23.68L436.53 23.68Z" id="c4OwJa1Go3"></path><path d="M453.48 54.92C451.51 54.09 449.76 52.95 448.31 51.43C446.87 49.98 445.73 48.23 444.89 46.18C444.06 44.2 443.68 42 443.68 39.72C443.68 39.71 443.68 39.65 443.68 39.64C443.68 37.36 444.06 35.23 444.89 33.26C445.73 31.28 446.87 29.53 448.31 28.01C449.76 26.49 451.51 25.35 453.56 24.44C455.53 23.6 457.81 23.15 460.25 23.15C461.69 23.15 463.06 23.3 464.28 23.53C465.49 23.76 466.56 24.14 467.55 24.59C468.53 25.05 469.45 25.58 470.36 26.19C471.19 26.8 472.03 27.48 472.79 28.16C472.43 28.58 469.57 31.93 469.22 32.35C467.93 31.13 466.56 30.22 465.19 29.46C463.74 28.7 462.15 28.39 460.32 28.39C458.8 28.39 457.36 28.7 456.07 29.3C454.77 29.91 453.63 30.67 452.72 31.74C451.81 32.73 451.05 33.94 450.52 35.31C449.98 36.68 449.76 38.12 449.76 39.72C449.76 39.73 449.76 39.79 449.76 39.8C449.76 41.32 449.98 42.84 450.52 44.2C451.05 45.57 451.73 46.79 452.72 47.85C453.63 48.92 454.77 49.68 456.07 50.29C457.36 50.89 458.73 51.2 460.32 51.2C462.3 51.2 463.97 50.82 465.34 50.06C466.71 49.3 468.15 48.31 469.52 47.02C469.88 47.38 472.74 50.3 473.09 50.67C472.26 51.58 471.42 52.34 470.51 53.02C469.6 53.71 468.61 54.31 467.62 54.77C466.56 55.3 465.42 55.68 464.2 55.91C462.83 56.06 461.46 56.22 459.94 56.22C457.59 56.22 455.46 55.76 453.48 54.92Z" id="b8YpySZQ"></path><path d="M165.3 78.18L179.36 110.34L173.43 110.34L170.16 102.66L155.03 102.66L151.76 110.34L145.99 110.34L160.13 78.18L165.3 78.18ZM162.63 84.95L157.16 97.72L168.18 97.72L162.63 84.95Z" id="c1nhlicTvt"></path><path d="M199.05 78.41C201.02 78.41 202.85 78.72 204.37 79.25C205.89 79.78 207.18 80.62 208.25 81.61C209.08 82.52 209.77 83.51 210.22 84.65C210.68 85.79 210.91 87.08 210.91 88.45C210.91 88.45 210.91 88.52 210.91 88.52C210.91 89.82 210.75 91.03 210.37 92.1C209.99 93.16 209.46 94.07 208.78 94.91C208.09 95.74 207.33 96.43 206.35 96.96C205.43 97.49 204.37 97.95 203.3 98.25C203.88 99.06 206.74 103.09 211.89 110.34L205.28 110.34L197.38 99.24L197.3 99.24L190.38 99.24L190.38 110.34L184.83 110.34L184.83 78.41C193.36 78.41 198.1 78.41 199.05 78.41ZM203.46 92.86C204.67 91.87 205.21 90.58 205.21 88.9C205.21 88.9 205.21 88.83 205.21 88.83C205.21 87.08 204.6 85.79 203.46 84.87C202.32 83.96 200.64 83.51 198.59 83.51C198.04 83.51 195.31 83.51 190.38 83.51L190.38 94.3L198.67 94.3C201.1 94 202.7 93.51 203.46 92.86Z" id="a12HbOZfWK"></path><path d="M215.54 83.66L215.54 78.49L241.47 78.49L241.47 83.66L231.36 83.66L231.36 110.42L225.73 110.42L225.73 83.66L215.54 83.66Z" id="efEgR8mik"></path><path d="M152.98 164.31C150.7 163.48 148.65 162.19 146.75 160.44C147.08 160.03 149.76 156.81 150.09 156.41C151.61 157.78 153.21 158.76 154.8 159.45C156.4 160.13 158.15 160.51 160.2 160.51C161.95 160.51 163.32 160.13 164.31 159.45C165.3 158.69 165.83 157.78 165.83 156.56C165.83 156.55 165.83 156.49 165.83 156.48C165.83 155.88 165.75 155.42 165.52 154.96C165.3 154.51 164.99 154.13 164.46 153.67C163.93 153.29 163.17 152.91 162.25 152.61C161.34 152.3 160.13 151.92 158.61 151.62C156.93 151.24 155.41 150.78 154.04 150.25C152.75 149.72 151.61 149.11 150.7 148.43C149.79 147.74 149.1 146.83 148.65 145.84C148.19 144.78 147.96 143.56 147.96 142.12C147.96 142.11 147.96 142.05 147.96 142.04C147.96 140.67 148.27 139.38 148.8 138.24C149.33 137.1 150.09 136.11 151 135.35C151.92 134.51 153.13 133.91 154.42 133.45C155.79 132.99 157.24 132.77 158.83 132.77C161.19 132.77 163.32 133.15 165.14 133.83C167.04 134.51 168.79 135.5 170.39 136.79C170.08 137.22 167.65 140.63 167.35 141.05C165.9 139.99 164.46 139.15 163.01 138.62C161.57 138.09 160.13 137.78 158.68 137.78C157.01 137.78 155.79 138.16 154.88 138.85C153.97 139.61 153.51 140.44 153.51 141.51C153.51 141.52 153.51 141.58 153.51 141.58C153.51 142.19 153.59 142.72 153.82 143.18C154.04 143.64 154.42 144.09 154.96 144.47C155.49 144.85 156.33 145.23 157.31 145.54C158.3 145.84 159.59 146.22 161.11 146.6C162.79 147.06 164.31 147.51 165.6 148.05C166.89 148.58 167.96 149.19 168.79 149.95C169.63 150.71 170.31 151.54 170.77 152.53C171.22 153.52 171.45 154.66 171.45 155.95C171.45 155.96 171.45 156.02 171.45 156.03C171.45 157.55 171.15 158.84 170.62 160.06C170.08 161.27 169.25 162.26 168.26 163.1C167.27 163.93 166.06 164.54 164.69 165C163.24 165.38 161.72 165.53 160.05 165.53C157.62 165.53 155.26 165.07 152.98 164.31Z" id="cGMD7pi49"></path><path d="M186.5 164.39C184.45 163.55 182.7 162.34 181.26 160.89C179.81 159.37 178.67 157.7 177.84 155.65C177 153.67 176.62 151.54 176.62 149.26C176.62 149.25 176.62 149.19 176.62 149.19C176.62 146.91 177 144.85 177.84 142.8C178.67 140.82 179.81 139.08 181.34 137.56C182.86 136.03 184.6 134.89 186.66 133.98C188.71 133.07 190.91 132.69 193.42 132.69C195.85 132.69 198.14 133.15 200.19 133.98C202.24 134.82 203.99 136.03 205.43 137.56C206.88 139.08 208.02 140.82 208.85 142.8C209.69 144.78 210.07 146.91 210.07 149.19C210.07 149.19 210.07 149.25 210.07 149.26C210.07 151.54 209.69 153.67 208.85 155.65C208.02 157.62 206.88 159.37 205.36 160.89C203.84 162.41 202.09 163.63 200.04 164.47C197.98 165.23 195.7 165.68 193.27 165.68C190.84 165.68 188.56 165.23 186.5 164.39ZM197.68 159.6C198.97 158.99 200.11 158.23 201.1 157.17C202.01 156.18 202.77 154.96 203.3 153.59C203.84 152.23 204.06 150.78 204.06 149.19C204.06 149.18 204.06 149.12 204.06 149.11C204.06 147.59 203.84 146.07 203.3 144.7C202.77 143.33 202.01 142.12 201.1 141.13C200.11 140.14 198.97 139.3 197.68 138.7C196.31 138.09 194.87 137.78 193.35 137.78C191.75 137.78 190.31 138.09 189.01 138.7C187.72 139.3 186.58 140.06 185.59 141.13C184.68 142.12 183.92 143.33 183.39 144.7C182.86 146.07 182.63 147.51 182.63 149.11C182.63 149.12 182.63 149.18 182.63 149.19C182.63 150.71 182.86 152.23 183.39 153.59C183.92 154.96 184.68 156.18 185.59 157.17C186.58 158.16 187.72 158.99 189.01 159.6C190.31 160.21 191.75 160.51 193.35 160.51C194.94 160.51 196.39 160.21 197.68 159.6Z" id="e9e1X6e2k"></path><path d="M225.2 164.39C223.22 163.55 221.47 162.41 220.03 160.89C218.58 159.45 217.44 157.7 216.61 155.65C215.77 153.67 215.39 151.47 215.39 149.19C215.39 149.18 215.39 149.12 215.39 149.11C215.39 146.83 215.77 144.7 216.61 142.72C217.44 140.75 218.58 139 220.03 137.48C221.47 135.96 223.22 134.82 225.27 133.91C227.25 133.07 229.53 132.61 231.96 132.61C233.41 132.61 234.78 132.77 235.99 132.99C237.21 133.22 238.27 133.6 239.34 134.06C240.33 134.51 241.24 135.05 242.15 135.65C242.99 136.26 243.82 136.95 244.58 137.63C244.23 138.05 241.37 141.39 241.01 141.81C239.72 140.6 238.35 139.68 236.98 138.92C235.54 138.16 233.94 137.86 232.12 137.86C230.6 137.86 229.15 138.16 227.86 138.77C226.57 139.38 225.43 140.14 224.51 141.2C223.6 142.19 222.84 143.41 222.31 144.78C221.78 146.15 221.55 147.59 221.55 149.19C221.55 149.19 221.55 149.25 221.55 149.26C221.55 150.78 221.78 152.3 222.31 153.67C222.84 155.04 223.53 156.26 224.51 157.32C225.43 158.38 226.57 159.14 227.86 159.75C229.15 160.36 230.52 160.66 232.12 160.66C234.09 160.66 235.76 160.28 237.13 159.52C238.5 158.76 239.95 157.78 241.31 156.48C241.67 156.85 244.53 159.77 244.89 160.13C244.05 161.04 243.21 161.8 242.3 162.49C241.39 163.17 240.4 163.78 239.41 164.24C238.35 164.77 237.21 165.15 235.99 165.38C234.55 165.53 233.18 165.68 231.66 165.68C229.3 165.68 227.17 165.23 225.2 164.39Z" id="aAG45jFvO"></path><path d="M256.29 133.15L256.29 165.07L250.74 165.07L250.74 133.15L256.29 133.15Z" id="a2nXKqI7r"></path><path d="M288.52 133.15L288.52 138.24L270.43 138.24L270.43 146.45L286.47 146.45L286.47 151.54L270.43 151.54L270.43 160.06L288.75 160.06L288.75 165.15L264.88 165.15L264.88 133.15L288.52 133.15Z" id="brjcUzpqQ"></path><path d="M293.23 138.39L293.23 133.22L319.16 133.22L319.16 138.39L308.97 138.39L308.97 165.15L303.35 165.15L303.35 138.39L293.23 138.39Z" id="jWlnpZi8R"></path><path d="M321.74 133.22L328.36 133.22L337.33 147.36L346.37 133.22L352.83 133.22L340.14 152.45L340.14 165.15L334.51 165.15L334.51 152.53L321.74 133.22Z" id="d2xa0kfzT5"></path><path d="M60.92 20.18C62.21 23.27 68.65 38.73 80.23 66.55L38.65 66.17C50.53 41.65 57.95 26.31 60.92 20.18Z" id="c5NohBj02X"></path><path d="M60.24 66.4C61.53 69.49 67.96 84.95 79.55 112.77L37.96 112.39C49.84 87.86 57.27 72.53 60.24 66.4Z" id="a3IBtQVUA5"></path><path d="M105.01 66.78C106.3 69.87 112.74 85.33 124.32 113.15L82.74 112.77C94.62 88.24 102.04 72.91 105.01 66.78Z" id="a1W7D90uNA"></path><path d="M105.01 33.33C98.34 33.33 92.93 38.75 92.93 45.42C92.93 52.1 98.34 57.51 105.01 57.51C111.69 57.51 117.1 52.1 117.1 45.42C117.1 38.75 111.69 33.33 105.01 33.33Z" id="a1ckhNeaY"></path></defs><g><g><g><use xlink:href="#k6KhpbYGV" opacity="1" fill="#000000" fill-opacity="1"></use><g><use xlink:href="#k6KhpbYGV" opacity="1" fill-opacity="0" stroke="#000000" stroke-width="1" stroke-opacity="0"></use></g></g><g><use xlink:href="#a2dJSXm6A0" opacity="1" fill="#000000" fill-opacity="1"></use><g><use xlink:href="#a2dJSXm6A0" opacity="1" fill-opacity="0" stroke="#000000" stroke-width="1" stroke-opacity="0"></use></g></g><g><use xlink:href="#c1SiRnooG" opacity="1" fill="#000000" fill-opacity="1"></use><g><use xlink:href="#c1SiRnooG" opacity="1" fill-opacity="0" stroke="#000000" stroke-width="1" stroke-opacity="0"></use></g></g><g><use xlink:href="#a3gq7FvU6o" opacity="1" fill="#000000" fill-opacity="1"></use><g><use xlink:href="#a3gq7FvU6o" opacity="1" fill-opacity="0" stroke="#000000" stroke-width="1" stroke-opacity="0"></use></g></g><g><use xlink:href="#aXmSPDSLy" opacity="1" fill="#000000" fill-opacity="1"></use><g><use xlink:href="#aXmSPDSLy" opacity="1" fill-opacity="0" stroke="#000000" stroke-width="1" stroke-opacity="0"></use></g></g><g><use xlink:href="#f3BM2e2DXN" opacity="1" fill="#000000" fill-opacity="1"></use><g><use xlink:href="#f3BM2e2DXN" opacity="1" fill-opacity="0" stroke="#000000" stroke-width="1" stroke-opacity="0"></use></g></g><g><use xlink:href="#d3gI9xEDno" opacity="1" fill="#000000" fill-opacity="1"></use><g><use xlink:href="#d3gI9xEDno" opacity="1" fill-opacity="0" stroke="#000000" stroke-width="1" stroke-opacity="0"></use></g></g><g><use xlink:href="#d2eAeOxM8N" opacity="1" fill="#000000" fill-opacity="1"></use><g><use xlink:href="#d2eAeOxM8N" opacity="1" fill-opacity="0" stroke="#000000" stroke-width="1" stroke-opacity="0"></use></g></g><g><use xlink:href="#c4OwJa1Go3" opacity="1" fill="#000000" fill-opacity="1"></use><g><use xlink:href="#c4OwJa1Go3" opacity="1" fill-opacity="0" stroke="#000000" stroke-width="1" stroke-opacity="0"></use></g></g><g><use xlink:href="#b8YpySZQ" opacity="1" fill="#000000" fill-opacity="1"></use><g><use xlink:href="#b8YpySZQ" opacity="1" fill-opacity="0" stroke="#000000" stroke-width="1" stroke-opacity="0"></use></g></g><g><use xlink:href="#c1nhlicTvt" opacity="1" fill="#000000" fill-opacity="1"></use><g><use xlink:href="#c1nhlicTvt" opacity="1" fill-opacity="0" stroke="#000000" stroke-width="1" stroke-opacity="0"></use></g></g><g><use xlink:href="#a12HbOZfWK" opacity="1" fill="#000000" fill-opacity="1"></use><g><use xlink:href="#a12HbOZfWK" opacity="1" fill-opacity="0" stroke="#000000" stroke-width="1" stroke-opacity="0"></use></g></g><g><use xlink:href="#efEgR8mik" opacity="1" fill="#000000" fill-opacity="1"></use><g><use xlink:href="#efEgR8mik" opacity="1" fill-opacity="0" stroke="#000000" stroke-width="1" stroke-opacity="0"></use></g></g><g><use xlink:href="#cGMD7pi49" opacity="1" fill="#000000" fill-opacity="1"></use><g><use xlink:href="#cGMD7pi49" opacity="1" fill-opacity="0" stroke="#000000" stroke-width="1" stroke-opacity="0"></use></g></g><g><use xlink:href="#e9e1X6e2k" opacity="1" fill="#000000" fill-opacity="1"></use><g><use xlink:href="#e9e1X6e2k" opacity="1" fill-opacity="0" stroke="#000000" stroke-width="1" stroke-opacity="0"></use></g></g><g><use xlink:href="#aAG45jFvO" opacity="1" fill="#000000" fill-opacity="1"></use><g><use xlink:href="#aAG45jFvO" opacity="1" fill-opacity="0" stroke="#000000" stroke-width="1" stroke-opacity="0"></use></g></g><g><use xlink:href="#a2nXKqI7r" opacity="1" fill="#000000" fill-opacity="1"></use><g><use xlink:href="#a2nXKqI7r" opacity="1" fill-opacity="0" stroke="#000000" stroke-width="1" stroke-opacity="0"></use></g></g><g><use xlink:href="#brjcUzpqQ" opacity="1" fill="#000000" fill-opacity="1"></use><g><use xlink:href="#brjcUzpqQ" opacity="1" fill-opacity="0" stroke="#000000" stroke-width="1" stroke-opacity="0"></use></g></g><g><use xlink:href="#jWlnpZi8R" opacity="1" fill="#000000" fill-opacity="1"></use><g><use xlink:href="#jWlnpZi8R" opacity="1" fill-opacity="0" stroke="#000000" stroke-width="1" stroke-opacity="0"></use></g></g><g><use xlink:href="#d2xa0kfzT5" opacity="1" fill="#000000" fill-opacity="1"></use><g><use xlink:href="#d2xa0kfzT5" opacity="1" fill-opacity="0" stroke="#000000" stroke-width="1" stroke-opacity="0"></use></g></g><g><use xlink:href="#c5NohBj02X" opacity="1" fill="#000000" fill-opacity="1"></use><g><use xlink:href="#c5NohBj02X" opacity="1" fill-opacity="0" stroke="#000000" stroke-width="1" stroke-opacity="0"></use></g></g><g><use xlink:href="#a3IBtQVUA5" opacity="1" fill="#000000" fill-opacity="1"></use><g><use xlink:href="#a3IBtQVUA5" opacity="1" fill-opacity="0" stroke="#000000" stroke-width="1" stroke-opacity="0"></use></g></g><g><use xlink:href="#a1W7D90uNA" opacity="1" fill="#000000" fill-opacity="1"></use><g><use xlink:href="#a1W7D90uNA" opacity="1" fill-opacity="0" stroke="#000000" stroke-width="1" stroke-opacity="0"></use></g></g><g><use xlink:href="#a1ckhNeaY" opacity="1" fill="#000000" fill-opacity="1"></use><g><use xlink:href="#a1ckhNeaY" opacity="1" fill-opacity="0" stroke="#000000" stroke-width="1" stroke-opacity="0"></use></g></g></g></g></svg>